# Blender v2.93.4 OBJ File: 'TestCircle.blend'
# www.blender.org
mtllib NewOutline.mtl
o Cylinder_Cylinder.002
v -0.500000 0.000000 -1.086085
v 0.500000 -0.000000 -1.086085
v -0.500000 -0.335619 -1.032928
v 0.500000 -0.335619 -1.032928
v -0.500000 -0.638385 -0.878661
v 0.500000 -0.638385 -0.878661
v -0.500000 -0.878661 -0.638385
v 0.500000 -0.878661 -0.638385
v -0.500000 -1.032928 -0.335619
v 0.500000 -1.032928 -0.335619
v -0.500000 -1.086085 0.000000
v 0.500000 -1.086085 0.000000
v -0.500000 -1.032928 0.335619
v 0.500000 -1.032928 0.335619
v -0.500000 -0.878661 0.638385
v 0.500000 -0.878661 0.638385
v -0.500000 -0.638385 0.878661
v 0.500000 -0.638385 0.878661
v -0.500000 -0.335619 1.032928
v 0.500000 -0.335619 1.032928
v -0.500000 0.000000 1.086085
v 0.500000 0.000000 1.086085
v -0.500000 0.335619 1.032928
v 0.500000 0.335619 1.032928
v -0.500000 0.638385 0.878661
v 0.500000 0.638385 0.878661
v -0.500000 0.878662 0.638385
v 0.500000 0.878662 0.638385
v -0.500000 1.032928 0.335619
v 0.500000 1.032928 0.335619
v -0.500000 1.086085 -0.000000
v 0.500000 1.086085 -0.000000
v -0.500000 1.032928 -0.335619
v 0.500000 1.032928 -0.335619
v -0.500000 0.878662 -0.638385
v 0.500000 0.878662 -0.638385
v -0.500000 0.638385 -0.878661
v 0.500000 0.638385 -0.878661
v -0.500000 0.335619 -1.032928
v 0.500000 0.335619 -1.032928
v -0.500000 0.000000 -1.600000
v -0.500000 -0.494427 -1.521690
v 0.500000 -0.494427 -1.521690
v 0.500000 -0.000000 -1.600000
v -0.500000 -0.940456 -1.294427
v 0.500000 -0.940456 -1.294427
v -0.500000 -1.294427 -0.940456
v 0.500000 -1.294427 -0.940456
v -0.500000 -1.521690 -0.494427
v 0.500000 -1.521690 -0.494427
v -0.500000 -1.600000 0.000000
v 0.500000 -1.600000 0.000000
v -0.500000 -1.521690 0.494427
v 0.500000 -1.521690 0.494427
v -0.500000 -1.294427 0.940456
v 0.500000 -1.294427 0.940456
v -0.500000 -0.940456 1.294427
v 0.500000 -0.940456 1.294427
v -0.500000 -0.494427 1.521690
v 0.500000 -0.494427 1.521690
v -0.500000 0.000000 1.600000
v 0.500000 0.000000 1.600000
v -0.500000 0.494427 1.521690
v 0.500000 0.494427 1.521690
v -0.500000 0.940457 1.294427
v 0.500000 0.940457 1.294427
v -0.500000 1.294427 0.940456
v 0.500000 1.294427 0.940456
v -0.500000 1.521690 0.494427
v 0.500000 1.521690 0.494427
v -0.500000 1.600000 -0.000000
v 0.500000 1.600000 -0.000000
v -0.500000 1.521690 -0.494427
v 0.500000 1.521690 -0.494427
v -0.500000 1.294427 -0.940456
v 0.500000 1.294427 -0.940456
v -0.500000 0.940457 -1.294427
v 0.500000 0.940457 -1.294427
v -0.500000 0.494427 -1.521690
v 0.500000 0.494427 -1.521690
vt 1.000000 0.500000
vt 1.000000 1.000000
vt 0.950000 1.000000
vt 0.950000 0.500000
vt 0.900000 1.000000
vt 0.900000 0.500000
vt 0.850000 1.000000
vt 0.850000 0.500000
vt 0.800000 1.000000
vt 0.800000 0.500000
vt 0.750000 1.000000
vt 0.750000 0.500000
vt 0.700000 1.000000
vt 0.700000 0.500000
vt 0.650000 1.000000
vt 0.650000 0.500000
vt 0.600000 1.000000
vt 0.600000 0.500000
vt 0.550000 1.000000
vt 0.550000 0.500000
vt 0.500000 1.000000
vt 0.500000 0.500000
vt 0.450000 1.000000
vt 0.450000 0.500000
vt 0.400000 1.000000
vt 0.400000 0.500000
vt 0.350000 1.000000
vt 0.350000 0.500000
vt 0.300000 1.000000
vt 0.300000 0.500000
vt 0.250000 1.000000
vt 0.250000 0.500000
vt 0.200000 1.000000
vt 0.200000 0.500000
vt 0.150000 1.000000
vt 0.150000 0.500000
vt 0.100000 1.000000
vt 0.100000 0.500000
vt 0.654242 0.381799
vt 0.699657 0.404939
vt 0.199657 0.404939
vt 0.154242 0.381799
vt 0.050000 1.000000
vt 0.050000 0.500000
vt -0.000000 1.000000
vt -0.000000 0.500000
vt 0.750000 0.412913
vt 0.250000 0.412913
vt 0.800343 0.404939
vt 0.750000 0.490000
vt 0.824164 0.478254
vt 0.300343 0.404939
vt 0.324164 0.478254
vt 0.250000 0.490000
vt 0.845758 0.381799
vt 0.891068 0.444164
vt 0.345758 0.381799
vt 0.391068 0.444164
vt 0.881799 0.345758
vt 0.944164 0.391068
vt 0.381799 0.345758
vt 0.444164 0.391068
vt 0.904939 0.300343
vt 0.978254 0.324164
vt 0.404939 0.300343
vt 0.478254 0.324164
vt 0.912913 0.250000
vt 0.990000 0.250000
vt 0.412913 0.250000
vt 0.490000 0.250000
vt 0.904939 0.199657
vt 0.978254 0.175836
vt 0.404939 0.199657
vt 0.478254 0.175836
vt 0.881799 0.154242
vt 0.944164 0.108932
vt 0.381799 0.154242
vt 0.444164 0.108932
vt 0.845758 0.118201
vt 0.891068 0.055836
vt 0.345758 0.118201
vt 0.391068 0.055836
vt 0.800343 0.095061
vt 0.824164 0.021746
vt 0.300343 0.095061
vt 0.324164 0.021746
vt 0.750000 0.087087
vt 0.750000 0.010000
vt 0.250000 0.087087
vt 0.250000 0.010000
vt 0.699657 0.095061
vt 0.675836 0.021746
vt 0.199657 0.095061
vt 0.175836 0.021746
vt 0.654242 0.118201
vt 0.608932 0.055836
vt 0.154242 0.118201
vt 0.108932 0.055836
vt 0.618201 0.154242
vt 0.555836 0.108932
vt 0.118201 0.154242
vt 0.055836 0.108932
vt 0.595061 0.199657
vt 0.521746 0.175836
vt 0.095061 0.199657
vt 0.021746 0.175836
vt 0.587087 0.250000
vt 0.510000 0.250000
vt 0.087087 0.250000
vt 0.010000 0.250000
vt 0.595061 0.300343
vt 0.521746 0.324164
vt 0.095061 0.300343
vt 0.021746 0.324164
vt 0.618201 0.345758
vt 0.555836 0.391068
vt 0.118201 0.345758
vt 0.055836 0.391068
vt 0.608932 0.444164
vt 0.108932 0.444164
vt 0.675836 0.478254
vt 0.175836 0.478254
vn 0.0000 -0.1564 -0.9877
vn 0.0000 -0.4540 -0.8910
vn 0.0000 -0.7071 -0.7071
vn 0.0000 -0.8910 -0.4540
vn 0.0000 -0.9877 -0.1564
vn 0.0000 -0.9877 0.1564
vn 0.0000 -0.8910 0.4540
vn 0.0000 -0.7071 0.7071
vn 0.0000 -0.4540 0.8910
vn -0.0000 -0.1564 0.9877
vn -0.0000 0.1564 0.9877
vn 0.0000 0.4540 0.8910
vn 0.0000 0.7071 0.7071
vn 0.0000 0.8910 0.4540
vn 0.0000 0.9877 0.1564
vn 0.0000 0.9877 -0.1564
vn 0.0000 0.8910 -0.4540
vn 0.0000 0.7071 -0.7071
vn 0.0000 0.4540 -0.8910
vn -0.0000 0.1564 -0.9877
vn -1.0000 0.0000 0.0000
vn 1.0000 0.0000 -0.0000
usemtl None
s off
f 41/1/1 44/2/1 43/3/1 42/4/1
f 42/4/2 43/3/2 46/5/2 45/6/2
f 45/6/3 46/5/3 48/7/3 47/8/3
f 47/8/4 48/7/4 50/9/4 49/10/4
f 49/10/5 50/9/5 52/11/5 51/12/5
f 51/12/6 52/11/6 54/13/6 53/14/6
f 53/14/7 54/13/7 56/15/7 55/16/7
f 55/16/8 56/15/8 58/17/8 57/18/8
f 57/18/9 58/17/9 60/19/9 59/20/9
f 59/20/10 60/19/10 62/21/10 61/22/10
f 61/22/11 62/21/11 64/23/11 63/24/11
f 63/24/12 64/23/12 66/25/12 65/26/12
f 65/26/13 66/25/13 68/27/13 67/28/13
f 67/28/14 68/27/14 70/29/14 69/30/14
f 69/30/15 70/29/15 72/31/15 71/32/15
f 71/32/16 72/31/16 74/33/16 73/34/16
f 73/34/17 74/33/17 76/35/17 75/36/17
f 75/36/18 76/35/18 78/37/18 77/38/18
f 37/39/9 39/40/9 40/41/9 38/42/9
f 77/38/19 78/37/19 80/43/19 79/44/19
f 79/44/20 80/43/20 44/45/20 41/46/20
f 39/40/10 1/47/10 2/48/10 40/41/10
f 3/49/21 1/47/21 41/50/21 42/51/21
f 2/48/22 4/52/22 43/53/22 44/54/22
f 5/55/21 3/49/21 42/51/21 45/56/21
f 4/52/22 6/57/22 46/58/22 43/53/22
f 7/59/21 5/55/21 45/56/21 47/60/21
f 6/57/22 8/61/22 48/62/22 46/58/22
f 9/63/21 7/59/21 47/60/21 49/64/21
f 8/61/22 10/65/22 50/66/22 48/62/22
f 11/67/21 9/63/21 49/64/21 51/68/21
f 10/65/22 12/69/22 52/70/22 50/66/22
f 13/71/21 11/67/21 51/68/21 53/72/21
f 12/69/22 14/73/22 54/74/22 52/70/22
f 15/75/21 13/71/21 53/72/21 55/76/21
f 14/73/22 16/77/22 56/78/22 54/74/22
f 17/79/21 15/75/21 55/76/21 57/80/21
f 16/77/22 18/81/22 58/82/22 56/78/22
f 19/83/21 17/79/21 57/80/21 59/84/21
f 18/81/22 20/85/22 60/86/22 58/82/22
f 21/87/21 19/83/21 59/84/21 61/88/21
f 20/85/22 22/89/22 62/90/22 60/86/22
f 23/91/21 21/87/21 61/88/21 63/92/21
f 22/89/22 24/93/22 64/94/22 62/90/22
f 25/95/21 23/91/21 63/92/21 65/96/21
f 24/93/22 26/97/22 66/98/22 64/94/22
f 27/99/21 25/95/21 65/96/21 67/100/21
f 26/97/22 28/101/22 68/102/22 66/98/22
f 29/103/21 27/99/21 67/100/21 69/104/21
f 28/101/22 30/105/22 70/106/22 68/102/22
f 31/107/21 29/103/21 69/104/21 71/108/21
f 30/105/22 32/109/22 72/110/22 70/106/22
f 33/111/21 31/107/21 71/108/21 73/112/21
f 32/109/22 34/113/22 74/114/22 72/110/22
f 35/115/21 33/111/21 73/112/21 75/116/21
f 34/113/22 36/117/22 76/118/22 74/114/22
f 37/39/21 35/115/21 75/116/21 77/119/21
f 36/117/22 38/42/22 78/120/22 76/118/22
f 39/40/21 37/39/21 77/119/21 79/121/21
f 38/42/22 40/41/22 80/122/22 78/120/22
f 1/47/21 39/40/21 79/121/21 41/50/21
f 40/41/22 2/48/22 44/54/22 80/122/22
f 35/115/8 37/39/8 38/42/8 36/117/8
f 33/111/7 35/115/7 36/117/7 34/113/7
f 31/107/6 33/111/6 34/113/6 32/109/6
f 29/103/5 31/107/5 32/109/5 30/105/5
f 27/99/4 29/103/4 30/105/4 28/101/4
f 25/95/3 27/99/3 28/101/3 26/97/3
f 23/91/2 25/95/2 26/97/2 24/93/2
f 21/87/1 23/91/1 24/93/1 22/89/1
f 19/83/20 21/87/20 22/89/20 20/85/20
f 17/79/19 19/83/19 20/85/19 18/81/19
f 15/75/18 17/79/18 18/81/18 16/77/18
f 13/71/17 15/75/17 16/77/17 14/73/17
f 11/67/16 13/71/16 14/73/16 12/69/16
f 9/63/15 11/67/15 12/69/15 10/65/15
f 7/59/14 9/63/14 10/65/14 8/61/14
f 5/55/13 7/59/13 8/61/13 6/57/13
f 3/49/12 5/55/12 6/57/12 4/52/12
f 1/47/11 3/49/11 4/52/11 2/48/11
