# Blender v2.93.4 OBJ File: 'Portal.blend'
# www.blender.org
mtllib Portal.mtl
o Plane.001_Plane.006
v -4.350000 1.645895 1.000000
v 4.350000 1.645895 1.000000
v -4.350000 1.645895 -1.000000
v 4.350000 1.645895 -1.000000
v 3.480000 1.645895 1.000000
v 3.480000 1.645895 -1.000000
v -3.480000 1.645895 1.000000
v -3.480000 1.645895 -1.000000
v 3.480000 1.777376 1.000000
v 3.480000 1.777376 -1.000000
v -3.480000 1.777376 1.000000
v -3.480000 1.777376 -1.000000
v -3.340483 12.413816 1.000000
v -4.210483 13.011520 -1.000000
v -5.030474 8.101158 -1.000000
v -5.030474 8.101158 1.000000
v 5.030474 8.101158 1.000000
v 5.030474 8.101158 -1.000000
v -3.340483 12.413816 -1.000000
v -4.210483 13.011520 1.000000
v 5.030474 8.101158 1.000000
v 5.030474 8.101158 -1.000000
v -5.030474 8.101158 -1.000000
v -5.030474 8.101158 1.000000
v 4.160473 7.909214 1.000000
v 4.160473 7.909214 -1.000000
v 5.030474 8.101158 1.000000
v 5.030474 8.101158 -1.000000
v -5.030474 8.101158 -1.000000
v -5.030474 8.101158 1.000000
v -4.160473 7.909214 1.000000
v -4.160473 7.909214 -1.000000
v 3.340483 12.413816 1.000000
v 3.340483 12.413816 -1.000000
v 4.210483 13.011520 1.000000
v 4.210483 13.011520 -1.000000
v -13.737871 0.000000 13.737871
v 13.737871 0.000000 13.737871
v -13.737871 0.000000 -13.737871
v 13.737871 0.000000 -13.737871
v -13.737871 -0.007558 -13.737871
v -13.737871 -0.007558 13.737871
v 13.737871 -0.007558 13.737871
v 13.737871 -0.007558 -13.737871
v -12.282161 0.413200 -12.282161
v -12.282161 0.413200 12.282161
v 12.282161 0.413200 12.282161
v 12.282161 0.413200 -12.282161
v -6.272724 1.734648 -6.272723
v -8.210361 0.644204 -8.210360
v -6.272724 1.734648 6.272723
v -8.210361 0.644204 8.210360
v 6.272724 1.734648 6.272723
v 8.210361 0.644204 8.210360
v 6.272724 1.734648 -6.272723
v 8.210361 0.644204 -8.210360
vt 0.000000 0.000000
vt 1.000000 0.000000
vt 1.000000 1.000000
vt 0.000000 1.000000
vt 0.000000 0.000000
vt 0.000000 0.000000
vt 0.000000 0.000000
vt 0.000000 0.000000
vt 0.000000 0.000000
vt 0.000000 0.000000
vt 0.000000 0.000000
vt 0.000000 0.000000
vt 0.000000 0.000000
vt 0.000000 0.000000
vt 0.000000 0.000000
vt 0.000000 0.000000
vt 0.000000 0.000000
vt 0.000000 0.000000
vt 0.000000 0.000000
vt 0.000000 0.000000
vt 0.000000 0.000000
vt 0.000000 0.000000
vt 0.000000 1.000000
vt 0.000000 0.000000
vt 0.000000 0.000000
vt 0.000000 0.000000
vt 0.000000 0.000000
vt 0.000000 0.000000
vt 0.000000 0.000000
vt 0.000000 0.000000
vt 0.000000 0.000000
vt 0.000000 0.000000
vt 0.000000 1.000000
vt 0.000000 1.000000
vt 0.000000 1.000000
vt 0.000000 0.000000
vt 0.000000 0.000000
vt 0.000000 0.000000
vt 0.000000 0.000000
vt 0.000000 0.000000
vt 0.000000 0.000000
vt 0.000000 0.000000
vt 0.000000 1.000000
vt 1.000000 1.000000
vt 1.000000 0.000000
vt 0.000000 1.000000
vt 1.000000 1.000000
vt 1.000000 0.000000
vt 0.000000 0.000000
vt 0.947018 0.052982
vt 0.052982 0.052982
vt 0.798822 0.201178
vt 0.201178 0.201178
vt 0.947018 0.947018
vt 0.052982 0.947018
vt 0.201178 0.798822
vt 0.798822 0.798822
vt 0.271700 0.271700
vt 0.728300 0.271700
vt 0.728300 0.728300
vt 0.271700 0.728300
vn 0.0000 1.0000 0.0000
vn 0.0000 0.0000 -1.0000
vn 0.0000 0.0000 1.0000
vn 1.0000 0.0000 0.0000
vn -1.0000 0.0000 0.0000
vn 0.9945 -0.1048 0.0000
vn -0.9945 -0.1048 0.0000
vn 0.9838 -0.1791 0.0000
vn 0.9939 0.1103 0.0000
vn -0.9863 0.1647 0.0000
vn -0.9939 0.1103 0.0000
vn 0.5663 0.8242 0.0000
vn 0.5663 -0.8242 0.0000
vn 0.9863 0.1647 0.0000
vn -0.9838 -0.1791 0.0000
vn 0.0000 -1.0000 0.0000
vn 0.0000 0.9607 0.2777
vn 0.0000 0.9984 0.0566
vn 0.2777 0.9607 0.0000
vn -0.2777 0.9607 0.0000
vn 0.0000 0.9984 -0.0566
vn 0.0566 0.9984 0.0000
vn 0.0000 0.9607 -0.2777
vn -0.4904 0.8715 0.0000
vn 0.0000 0.8715 0.4904
vn 0.4904 0.8715 0.0000
vn 0.0000 0.8715 -0.4904
vn -0.0566 0.9984 0.0000
usemtl None
s off
f 1/1/1 2/2/1 4/3/1 3/4/1
f 8/5/2 3/6/2 12/7/2
f 7/8/3 11/9/3 1/1/3
f 8/5/4 12/7/4 11/9/4 7/8/4
f 6/10/5 5/11/5 9/12/5 10/13/5
f 6/10/2 10/13/2 4/14/2
f 5/11/3 2/15/3 9/12/3
f 4/3/6 18/16/6 17/17/6 2/2/6
f 2/15/3 27/18/3 25/19/3 9/12/3
f 11/9/3 31/20/3 30/21/3 1/1/3
f 1/1/7 16/22/7 15/23/7 3/4/7
f 32/24/8 19/25/8 13/26/8 31/20/8
f 4/14/2 10/13/2 26/27/2 28/28/2
f 12/7/2 3/6/2 29/29/2 32/24/2
f 18/16/3 17/17/3 21/30/3 22/31/3
f 12/7/9 32/24/9 31/20/9 11/9/9
f 30/21/10 20/32/10 14/33/10 29/34/10
f 10/13/11 9/12/11 25/19/11 26/27/11
f 16/22/3 15/23/3 23/35/3 24/36/3
f 27/18/3 35/37/3 33/38/3 25/19/3
f 29/29/2 14/39/2 19/25/2 32/24/2
f 31/20/3 13/26/3 20/32/3 30/21/3
f 14/39/12 20/32/12 13/26/12 19/25/12
f 22/31/3 21/30/3 27/18/3 28/28/3
f 24/36/3 23/35/3 29/34/3 30/21/3
f 35/37/13 33/38/13 34/40/13 36/41/13
f 28/28/14 36/41/14 35/37/14 27/18/14
f 26/27/2 34/40/2 36/41/2 28/28/2
f 25/19/15 33/38/15 34/40/15 26/27/15
f 19/25/16 34/40/16 33/38/16 13/26/16
f 35/37/3 20/32/3 13/26/3 33/38/3
f 36/41/2 34/40/2 19/25/2 14/39/2
f 36/41/1 14/39/1 20/32/1 35/37/1
f 37/42/16 39/43/16 40/44/16 38/45/16
f 40/44/3 39/43/3 41/46/3 44/47/3
f 38/45/5 40/44/5 44/47/5 43/48/5
f 42/49/17 43/48/17 47/50/17 46/51/17
f 37/42/2 38/45/2 43/48/2 42/49/2
f 54/52/18 52/53/18 46/51/18 47/50/18
f 43/48/19 44/47/19 48/54/19 47/50/19
f 41/46/20 42/49/20 46/51/20 45/55/20
f 39/43/4 37/42/4 42/49/4 41/46/4
f 50/56/21 56/57/21 48/54/21 45/55/21
f 56/57/22 54/52/22 47/50/22 48/54/22
f 51/58/1 53/59/1 55/60/1 49/61/1
f 44/47/23 41/46/23 45/55/23 48/54/23
f 51/58/24 49/61/24 50/56/24 52/53/24
f 53/59/25 51/58/25 52/53/25 54/52/25
f 55/60/26 53/59/26 54/52/26 56/57/26
f 49/61/27 55/60/27 56/57/27 50/56/27
f 52/53/28 50/56/28 45/55/28 46/51/28
