# Blender v2.93.4 OBJ File: 'Portal.blend'
# www.blender.org
mtllib Portal Outline.mtl
o Plane.001_Plane.006
v -4.350000 1.645895 1.000000
v 4.350000 1.645895 1.000000
v -4.350000 1.645895 -1.000000
v 4.350000 1.645895 -1.000000
v 3.480000 1.645895 1.000000
v 3.480000 1.645895 -1.000000
v -3.480000 1.645895 1.000000
v -3.480000 1.645895 -1.000000
v 3.480000 1.777376 1.000000
v 3.480000 1.777376 -1.000000
v -3.480000 1.777376 1.000000
v -3.480000 1.777376 -1.000000
v -3.340483 12.413816 1.000000
v -4.210483 13.011520 -1.000000
v -5.030474 8.101158 -1.000000
v -5.030474 8.101158 1.000000
v 5.030474 8.101158 1.000000
v 5.030474 8.101158 -1.000000
v -3.340483 12.413816 -1.000000
v -4.210483 13.011520 1.000000
v 5.030474 8.101158 1.000000
v 5.030474 8.101158 -1.000000
v -5.030474 8.101158 -1.000000
v -5.030474 8.101158 1.000000
v 4.160473 7.909214 1.000000
v 4.160473 7.909214 -1.000000
v 5.030474 8.101158 1.000000
v 5.030474 8.101158 -1.000000
v -5.030474 8.101158 -1.000000
v -5.030474 8.101158 1.000000
v -4.160473 7.909214 1.000000
v -4.160473 7.909214 -1.000000
v 3.340483 12.413816 1.000000
v 3.340483 12.413816 -1.000000
v 4.210483 13.011520 1.000000
v 4.210483 13.011520 -1.000000
v -13.737871 0.000000 13.737871
v 13.737871 0.000000 13.737871
v -13.737871 0.000000 -13.737871
v 13.737871 0.000000 -13.737871
v -13.737871 -0.007558 -13.737871
v -13.737871 -0.007558 13.737871
v 13.737871 -0.007558 13.737871
v 13.737871 -0.007558 -13.737871
vt 0.000000 0.000000
vt 0.000000 0.000000
vt 0.000000 0.000000
vt 0.000000 0.000000
vt 0.000000 0.000000
vt 0.000000 0.000000
vt 0.000000 0.000000
vt 0.000000 0.000000
vt 0.000000 0.000000
vt 0.000000 0.000000
vt 0.000000 0.000000
vt 1.000000 1.000000
vt 0.000000 0.000000
vt 0.000000 0.000000
vt 1.000000 0.000000
vt 0.000000 0.000000
vt 0.000000 0.000000
vt 0.000000 0.000000
vt 0.000000 0.000000
vt 0.000000 0.000000
vt 0.000000 1.000000
vt 0.000000 1.000000
vt 0.000000 0.000000
vt 0.000000 0.000000
vt 0.000000 0.000000
vt 0.000000 0.000000
vt 0.000000 0.000000
vt 0.000000 0.000000
vt 0.000000 0.000000
vt 0.000000 0.000000
vt 0.000000 0.000000
vt 0.000000 0.000000
vt 0.000000 1.000000
vt 0.000000 1.000000
vt 0.000000 1.000000
vt 0.000000 0.000000
vt 0.000000 0.000000
vt 0.000000 0.000000
vt 0.000000 0.000000
vt 0.000000 0.000000
vt 0.000000 0.000000
vt 1.000000 1.000000
vt 0.000000 1.000000
vt 0.000000 1.000000
vt 1.000000 1.000000
vt 0.000000 0.000000
vt 1.000000 0.000000
vt 1.000000 0.000000
vt 0.000000 0.000000
vn 0.0000 0.0000 1.0000
vn 1.0000 0.0000 0.0000
vn -1.0000 0.0000 0.0000
vn 0.0000 0.0000 -1.0000
vn 0.9945 -0.1048 0.0000
vn -0.9945 -0.1048 0.0000
vn 0.9838 -0.1791 0.0000
vn 0.9939 0.1103 0.0000
vn -0.9863 0.1647 0.0000
vn -0.9939 0.1103 0.0000
vn 0.5663 0.8242 0.0000
vn 0.5663 -0.8242 0.0000
vn 0.9863 0.1647 0.0000
vn -0.9838 -0.1791 0.0000
vn 0.0000 -1.0000 0.0000
vn 0.0000 1.0000 0.0000
usemtl None
s off
f 7/1/1 11/2/1 1/3/1
f 8/4/2 12/5/2 11/2/2 7/1/2
f 6/6/3 5/7/3 9/8/3 10/9/3
f 6/6/4 10/9/4 4/10/4
f 5/7/1 2/11/1 9/8/1
f 4/12/5 18/13/5 17/14/5 2/15/5
f 2/11/1 27/16/1 25/17/1 9/8/1
f 11/2/1 31/18/1 30/19/1 1/3/1
f 1/3/6 16/20/6 15/21/6 3/22/6
f 32/23/7 19/24/7 13/25/7 31/18/7
f 4/10/4 10/9/4 26/26/4 28/27/4
f 12/5/4 3/28/4 29/29/4 32/23/4
f 18/13/1 17/14/1 21/30/1 22/31/1
f 12/5/8 32/23/8 31/18/8 11/2/8
f 30/19/9 20/32/9 14/33/9 29/34/9
f 10/9/10 9/8/10 25/17/10 26/26/10
f 16/20/1 15/21/1 23/35/1 24/36/1
f 27/16/1 35/37/1 33/38/1 25/17/1
f 29/29/4 14/39/4 19/24/4 32/23/4
f 31/18/1 13/25/1 20/32/1 30/19/1
f 14/39/11 20/32/11 13/25/11 19/24/11
f 22/31/1 21/30/1 27/16/1 28/27/1
f 24/36/1 23/35/1 29/34/1 30/19/1
f 35/37/12 33/38/12 34/40/12 36/41/12
f 28/27/13 36/41/13 35/37/13 27/16/13
f 26/26/4 34/40/4 36/41/4 28/27/4
f 25/17/14 33/38/14 34/40/14 26/26/14
f 19/24/15 34/40/15 33/38/15 13/25/15
f 35/37/1 20/32/1 13/25/1 33/38/1
f 36/41/4 34/40/4 19/24/4 14/39/4
f 36/41/16 14/39/16 20/32/16 35/37/16
f 40/42/1 39/43/1 41/44/1 44/45/1
f 37/46/4 38/47/4 43/48/4 42/49/4
f 39/43/2 37/46/2 42/49/2 41/44/2
