# Blender v2.93.4 OBJ File: 'SpaceStation.blend'
# www.blender.org
mtllib SpaceStationWindows.mtl
o Torus.002
v 0.875000 -0.266724 0.000000
v 0.867514 -0.266724 -0.114210
v 0.845185 -0.266724 -0.226467
v 0.808395 -0.266724 -0.334848
v 0.757772 -0.266724 -0.437500
v 0.694184 -0.266724 -0.532666
v 0.618718 -0.266724 -0.618719
v 0.532666 -0.266724 -0.694184
v 0.437500 -0.266724 -0.757772
v 0.334848 -0.266724 -0.808394
v 0.226467 -0.266724 -0.845185
v 0.114210 -0.266724 -0.867514
v 0.000000 -0.266724 -0.875000
v -0.114211 -0.266724 -0.867514
v -0.226467 -0.266724 -0.845185
v -0.334848 -0.266724 -0.808395
v -0.437500 -0.266724 -0.757772
v -0.532666 -0.266724 -0.694184
v -0.618719 -0.266724 -0.618718
v -0.694184 -0.266724 -0.532666
v -0.757772 -0.266724 -0.437500
v -0.808395 -0.266724 -0.334848
v -0.845185 -0.266724 -0.226467
v -0.867514 -0.266724 -0.114211
v -0.875000 -0.266724 -0.000000
v -0.867514 -0.266724 0.114211
v -0.845185 -0.266724 0.226467
v -0.808395 -0.266724 0.334848
v -0.757772 -0.266724 0.437500
v -0.694184 -0.266724 0.532666
v -0.618719 -0.266724 0.618718
v -0.532667 -0.266724 0.694184
v -0.437500 -0.266724 0.757772
v -0.334848 -0.266724 0.808395
v -0.226467 -0.266724 0.845185
v -0.114211 -0.266724 0.867514
v 0.000000 -0.266724 0.875000
v 0.114210 -0.266724 0.867514
v 0.226466 -0.266724 0.845185
v 0.334848 -0.266724 0.808394
v 0.437500 -0.266724 0.757772
v 0.532666 -0.266724 0.694184
v 0.618718 -0.266724 0.618719
v 0.694184 -0.266724 0.532666
v 0.757772 -0.266724 0.437500
v 0.808394 -0.266724 0.334848
v 0.845185 -0.266724 0.226466
v 0.867514 -0.266724 0.114210
v 0.875000 0.266834 0.000000
v 0.867514 0.266834 -0.114210
v 0.845185 0.266834 -0.226467
v 0.808395 0.266834 -0.334848
v 0.757772 0.266834 -0.437500
v 0.694184 0.266834 -0.532666
v 0.618718 0.266834 -0.618719
v 0.532666 0.266834 -0.694184
v 0.437500 0.266834 -0.757772
v 0.334848 0.266834 -0.808394
v 0.226467 0.266834 -0.845185
v 0.114210 0.266834 -0.867514
v 0.000000 0.266834 -0.875000
v -0.114211 0.266834 -0.867514
v -0.226467 0.266834 -0.845185
v -0.334848 0.266834 -0.808395
v -0.437500 0.266834 -0.757772
v -0.532666 0.266834 -0.694184
v -0.618719 0.266834 -0.618718
v -0.694184 0.266834 -0.532666
v -0.757772 0.266834 -0.437500
v -0.808395 0.266834 -0.334848
v -0.845185 0.266834 -0.226467
v -0.867514 0.266834 -0.114211
v -0.875000 0.266834 -0.000000
v -0.867514 0.266834 0.114211
v -0.845185 0.266834 0.226467
v -0.808395 0.266834 0.334848
v -0.757772 0.266834 0.437500
v -0.694184 0.266834 0.532666
v -0.618719 0.266834 0.618718
v -0.532667 0.266834 0.694184
v -0.437500 0.266834 0.757772
v -0.334848 0.266834 0.808395
v -0.226467 0.266834 0.845185
v -0.114211 0.266834 0.867514
v 0.000000 0.266834 0.875000
v 0.114210 0.266834 0.867514
v 0.226466 0.266834 0.845185
v 0.334848 0.266834 0.808394
v 0.437500 0.266834 0.757772
v 0.532666 0.266834 0.694184
v 0.618718 0.266834 0.618719
v 0.694184 0.266834 0.532666
v 0.757772 0.266834 0.437500
v 0.808394 0.266834 0.334848
v 0.845185 0.266834 0.226466
v 0.867514 0.266834 0.114210
vt 0.541667 0.166667
vt 0.562500 0.166667
vt 0.583333 0.166667
vt 0.604167 0.166667
vt 0.625000 0.166667
vt 0.645833 0.166667
vt 0.666667 0.166667
vt 0.687500 0.166667
vt 0.708333 0.166667
vt 0.729167 0.166667
vt 0.750000 0.166667
vt 0.770833 0.166667
vt 0.791667 0.166667
vt 0.812500 0.166667
vt 0.833333 0.166667
vt 0.854167 0.166667
vt 0.875000 0.166667
vt 0.895833 0.166667
vt 0.916667 0.166667
vt 0.937500 0.166667
vt 0.958333 0.166667
vt 0.979167 0.166667
vt 0.000000 0.166667
vt 0.020833 0.166667
vt 0.041667 0.166667
vt 0.062500 0.166667
vt 0.083333 0.166667
vt 0.104167 0.166667
vt 0.125000 0.166667
vt 0.145833 0.166667
vt 0.166667 0.166667
vt 0.187500 0.166667
vt 0.208333 0.166667
vt 0.229167 0.166667
vt 0.250000 0.166667
vt 0.270833 0.166667
vt 0.291667 0.166667
vt 0.312500 0.166667
vt 0.333333 0.166667
vt 0.354167 0.166667
vt 0.375000 0.166667
vt 0.395833 0.166667
vt 0.416667 0.166667
vt 0.437500 0.166667
vt 0.458333 0.166667
vt 0.479167 0.166667
vt 0.500000 0.166667
vt 0.520833 0.166667
vt 0.520833 0.833333
vt 0.500000 0.833333
vt 0.479167 0.833333
vt 0.458333 0.833333
vt 0.437500 0.833333
vt 0.416667 0.833333
vt 0.395833 0.833333
vt 0.375000 0.833333
vt 0.354167 0.833333
vt 0.333333 0.833333
vt 0.312500 0.833333
vt 0.291667 0.833333
vt 0.270833 0.833333
vt 0.250000 0.833333
vt 0.229167 0.833333
vt 0.208333 0.833333
vt 0.187500 0.833333
vt 0.166667 0.833333
vt 0.145833 0.833333
vt 0.125000 0.833333
vt 0.104167 0.833333
vt 0.083333 0.833333
vt 0.062500 0.833333
vt 0.041667 0.833333
vt 0.020833 0.833333
vt 0.000000 0.833333
vt 0.979167 0.833333
vt 0.958333 0.833333
vt 0.937500 0.833333
vt 0.916667 0.833333
vt 0.895833 0.833333
vt 0.875000 0.833333
vt 0.854167 0.833333
vt 0.833333 0.833333
vt 0.812500 0.833333
vt 0.791667 0.833333
vt 0.770833 0.833333
vt 0.750000 0.833333
vt 0.729167 0.833333
vt 0.708333 0.833333
vt 0.687500 0.833333
vt 0.666667 0.833333
vt 0.645833 0.833333
vt 0.625000 0.833333
vt 0.604167 0.833333
vt 0.583333 0.833333
vt 0.562500 0.833333
vt 0.541667 0.833333
vn 0.0000 1.0000 0.0000
vn 0.0000 -1.0000 -0.0000
usemtl None
s off
f 3/1/1 4/2/1 5/3/1 6/4/1 7/5/1 8/6/1 9/7/1 10/8/1 11/9/1 12/10/1 13/11/1 14/12/1 15/13/1 16/14/1 17/15/1 18/16/1 19/17/1 20/18/1 21/19/1 22/20/1 23/21/1 24/22/1 25/23/1 26/24/1 27/25/1 28/26/1 29/27/1 30/28/1 31/29/1 32/30/1 33/31/1 34/32/1 35/33/1 36/34/1 37/35/1 38/36/1 39/37/1 40/38/1 41/39/1 42/40/1 43/41/1 44/42/1 45/43/1 46/44/1 47/45/1 48/46/1 1/47/1 2/48/1
f 50/49/2 49/50/2 96/51/2 95/52/2 94/53/2 93/54/2 92/55/2 91/56/2 90/57/2 89/58/2 88/59/2 87/60/2 86/61/2 85/62/2 84/63/2 83/64/2 82/65/2 81/66/2 80/67/2 79/68/2 78/69/2 77/70/2 76/71/2 75/72/2 74/73/2 73/74/2 72/75/2 71/76/2 70/77/2 69/78/2 68/79/2 67/80/2 66/81/2 65/82/2 64/83/2 63/84/2 62/85/2 61/86/2 60/87/2 59/88/2 58/89/2 57/90/2 56/91/2 55/92/2 54/93/2 53/94/2 52/95/2 51/96/2
