# Blender v2.93.4 OBJ File: 'Rock.blend'
# www.blender.org
mtllib Rock4.mtl
o Icosphere_Icosphere.002
v 0.333871 -0.626136 0.059429
v 0.723607 -0.447220 0.525725
v -0.241674 -0.464036 0.730616
v -0.694251 -0.380427 0.126724
v 0.255372 -0.359014 -0.657767
v 0.756276 -0.306580 -0.315979
v 0.123656 0.139730 0.896701
v -0.699042 0.147968 0.576591
v -0.522024 0.487084 -0.455279
v 0.310941 0.483646 -1.010281
v 0.926986 0.344081 0.078536
v 0.059151 0.692131 -0.053050
v -0.099617 -0.737016 0.485001
v 0.547715 -0.492626 0.168741
v 0.250845 -0.355499 0.633068
v 0.692940 -0.218062 0.012549
v 0.609136 -0.556215 -0.178056
v -0.426014 -0.729632 0.218030
v -0.367703 -0.549581 0.570684
v 0.307810 -0.645911 -0.322629
v -0.426652 -0.613810 -0.322939
v 0.548887 -0.362832 -0.584041
v 0.826137 0.177036 0.323604
v 1.003418 -0.028561 -0.091509
v -0.191832 -0.310400 0.896341
v 0.598943 0.177036 0.636312
v -0.814807 -0.169346 0.441523
v -0.480613 -0.403102 0.713397
v -0.623056 0.176485 -0.721314
v -0.875947 0.026926 -0.140843
v 0.655184 0.030931 -0.714752
v 0.316178 0.050409 -0.873141
v 0.661737 0.505837 0.443047
v -0.204339 0.151043 0.849710
v -0.646652 0.372131 -0.047333
v -0.270401 0.688073 -0.975347
v 0.734199 0.470720 -0.207953
v 0.258962 0.559924 0.221438
v 0.561204 0.720160 -0.174753
v -0.505176 0.461983 0.145592
v -0.264316 0.777241 -0.513609
v 0.088220 0.741789 -0.667361
vt 0.224254 0.073500
vt 0.261082 0.137289
vt 0.149961 0.102281
vt 0.272728 0.157461
vt 0.284374 0.137289
vt 0.334799 0.207410
vt 0.985982 -0.014965
vt 0.978108 0.081804
vt 0.889854 0.102281
vt 0.720715 -0.075821
vt 0.803067 0.077861
vt 0.620950 0.026316
vt 0.493016 -0.031748
vt 0.538204 0.087340
vt 0.452779 0.072139
vt 0.318182 0.236191
vt 0.095070 0.164666
vt 0.195416 0.181012
vt 0.104816 0.181547
vt 0.846775 0.181012
vt 0.965855 0.157461
vt 0.891185 0.210831
vt 0.574351 0.191048
vt 0.714864 0.131852
vt 0.735873 0.256741
vt 0.425708 0.207410
vt 0.490969 0.178011
vt 0.488136 0.256741
vt 0.227273 0.236191
vt 0.054219 0.171784
vt 0.814918 0.236191
vt 0.557734 0.293652
vt 0.385363 0.236191
vt 0.150271 0.260277
vt 0.272728 0.314921
vt 0.230256 0.364532
vt 0.005228 0.272149
vt 0.101552 0.260277
vt 0.022605 0.351315
vt 0.761562 0.301235
vt 0.838482 0.277006
vt 0.762177 0.388666
vt 0.545468 0.335471
vt 0.648228 0.335471
vt 0.598366 0.379965
vt 0.363637 0.314921
vt 0.442682 0.335471
vt 0.432820 0.393651
vt 0.508718 0.388906
vt 0.435623 0.455735
vt 0.673917 0.379965
vt 0.624805 0.499219
vt 0.869393 0.327121
vt 0.835601 0.493967
vt 0.909922 0.274435
vt 0.161837 0.369061
vt 0.091842 0.446497
vt 0.342518 0.447513
vt 0.243396 0.456946
vt 0.958734 0.170369
vt 1.016782 0.167305
vt 0.380254 0.128680
vt 0.321202 0.073500
vn 0.4354 -0.8740 0.2158
vn 0.7610 -0.5743 -0.3019
vn 0.1022 -0.9831 -0.1521
vn 0.1433 -0.9888 0.0414
vn 0.2713 -0.9620 0.0313
vn 0.9666 -0.2075 -0.1504
vn 0.2838 -0.7443 0.6046
vn -0.6681 -0.7106 0.2206
vn -0.2336 -0.4833 -0.8437
vn 0.7688 -0.3786 -0.5153
vn 0.8077 0.0573 0.5868
vn -0.2238 -0.6803 0.6980
vn -0.8988 -0.4353 -0.0523
vn -0.2002 -0.4327 -0.8790
vn 0.8105 -0.3295 -0.4843
vn -0.1597 0.8522 0.4983
vn -0.2722 0.8319 0.4836
vn -0.7513 0.6585 -0.0440
vn 0.2695 0.8453 -0.4613
vn 0.7746 0.5729 -0.2680
vn -0.0365 0.9962 0.0788
vn 0.6298 0.5143 -0.5821
vn 0.5273 0.8072 -0.2652
vn 0.1369 0.9868 0.0862
vn 0.0159 0.9817 -0.1898
vn -0.7541 0.6466 -0.1149
vn -0.2490 0.9060 0.3423
vn -0.6467 0.7527 0.1237
vn -0.6975 0.6910 0.1897
vn -0.1592 0.8392 0.5201
vn -0.1575 0.8767 0.4545
vn -0.0453 0.8522 0.5212
vn 0.0473 0.9130 0.4053
vn -0.0584 0.9402 0.3357
vn 0.6565 0.7393 0.1496
vn 0.8402 0.3581 -0.4071
vn 0.8322 0.3480 -0.4317
vn 0.8310 0.3494 -0.4328
vn -0.1619 -0.2996 -0.9402
vn -0.1934 -0.3262 -0.9253
vn -0.8509 0.4729 -0.2289
vn -0.8182 0.5678 -0.0900
vn -0.8362 0.4872 0.2520
vn -0.9439 0.3279 0.0386
vn -0.4833 0.0257 0.8751
vn -0.5496 0.0692 0.8325
vn -0.1379 0.0959 0.9858
vn 0.4159 0.4005 0.8165
vn 0.7947 0.1876 0.5773
vn 0.8326 0.2339 0.5021
vn 0.3943 -0.2730 -0.8775
vn 0.3732 -0.3815 -0.8457
vn 0.2079 -0.4794 -0.8526
vn -0.8420 0.4818 -0.2427
vn -0.7859 -0.4228 -0.4513
vn -0.8267 -0.5160 -0.2242
vn -0.6609 -0.0766 0.7465
vn -0.6678 -0.7153 0.2058
vn -0.2383 -0.7657 0.5974
vn 0.4731 -0.3322 0.8160
vn 0.4630 -0.3077 0.8312
vn 0.1948 -0.1332 0.9718
vn 0.9217 0.0122 0.3876
vn 0.5620 -0.6203 0.5472
vn 0.5691 -0.7598 0.3144
vn 0.6789 -0.6186 -0.3954
vn 0.4431 -0.7821 -0.4383
vn 0.1553 -0.7383 -0.6563
vn -0.0330 -0.7618 -0.6470
vn -0.0426 -0.9770 -0.2091
vn -0.7689 -0.6254 -0.1330
vn -0.7783 -0.4977 0.3828
vn -0.4009 -0.7874 0.4683
vn -0.3037 -0.7197 0.6243
vn 0.8872 -0.3729 0.2715
vn 0.9084 -0.3522 0.2255
vn 0.4252 -0.8739 0.2355
vn 0.2779 -0.5586 0.7815
vn 0.5134 -0.6765 0.5280
vn -0.1441 -0.9703 0.1944
usemtl None
s off
f 1/1/1 14/2/1 13/3/1
f 2/4/2 14/5/2 16/6/2
f 1/7/3 13/8/3 18/9/3
f 1/10/4 18/11/4 20/12/4
f 1/13/5 20/14/5 17/15/5
f 2/4/6 16/6/6 23/16/6
f 3/17/7 15/18/7 25/19/7
f 4/20/8 19/21/8 27/22/8
f 5/23/9 21/24/9 29/25/9
f 6/26/10 22/27/10 31/28/10
f 2/4/11 23/16/11 26/29/11
f 3/17/12 25/19/12 28/30/12
f 4/20/13 27/22/13 30/31/13
f 5/23/14 29/25/14 32/32/14
f 6/26/15 31/28/15 24/33/15
f 7/34/16 33/35/16 38/36/16
f 8/37/17 34/38/17 40/39/17
f 9/40/18 35/41/18 41/42/18
f 10/43/19 36/44/19 42/45/19
f 11/46/20 37/47/20 39/48/20
f 39/48/21 42/49/21 12/50/21
f 39/48/22 37/47/22 42/49/22
f 37/47/23 10/43/23 42/49/23
f 42/45/24 41/51/24 12/52/24
f 42/45/25 36/44/25 41/51/25
f 36/44/26 9/40/26 41/51/26
f 41/42/27 40/53/27 12/54/27
f 41/42/28 35/41/28 40/53/28
f 35/41/29 8/55/29 40/53/29
f 40/39/30 38/56/30 12/57/30
f 40/39/31 34/38/31 38/56/31
f 34/38/32 7/34/32 38/56/32
f 38/36/33 39/58/33 12/59/33
f 38/36/34 33/35/34 39/58/34
f 33/35/35 11/46/35 39/58/35
f 24/33/36 37/47/36 11/46/36
f 24/33/37 31/28/37 37/47/37
f 31/28/38 10/43/38 37/47/38
f 32/32/39 36/44/39 10/43/39
f 32/32/40 29/25/40 36/44/40
f 29/25/41 9/40/41 36/44/41
f 30/31/42 35/41/42 9/40/42
f 30/31/43 27/22/43 35/41/43
f 27/22/44 8/55/44 35/41/44
f 28/30/45 34/38/45 8/37/45
f 28/30/46 25/19/46 34/38/46
f 25/19/47 7/34/47 34/38/47
f 26/29/48 33/35/48 7/34/48
f 26/29/49 23/16/49 33/35/49
f 23/16/50 11/46/50 33/35/50
f 31/28/51 32/32/51 10/43/51
f 31/28/52 22/27/52 32/32/52
f 22/27/53 5/23/53 32/32/53
f 29/25/54 30/31/54 9/40/54
f 29/25/55 21/24/55 30/31/55
f 21/24/56 4/20/56 30/31/56
f 27/22/57 28/60/57 8/55/57
f 27/22/58 19/21/58 28/60/58
f 19/21/59 3/61/59 28/60/59
f 25/19/60 26/29/60 7/34/60
f 25/19/61 15/18/61 26/29/61
f 15/18/62 2/4/62 26/29/62
f 23/16/63 24/33/63 11/46/63
f 23/16/64 16/6/64 24/33/64
f 16/6/65 6/26/65 24/33/65
f 17/15/66 22/27/66 6/26/66
f 17/15/67 20/14/67 22/27/67
f 20/14/68 5/23/68 22/27/68
f 20/12/69 21/24/69 5/23/69
f 20/12/70 18/11/70 21/24/70
f 18/11/71 4/20/71 21/24/71
f 18/9/72 19/21/72 4/20/72
f 18/9/73 13/8/73 19/21/73
f 13/8/74 3/61/74 19/21/74
f 16/6/75 17/62/75 6/26/75
f 16/6/76 14/5/76 17/62/76
f 14/5/77 1/63/77 17/62/77
f 13/3/78 15/18/78 3/17/78
f 13/3/79 14/2/79 15/18/79
f 14/2/80 2/4/80 15/18/80
