# Blender v2.93.4 OBJ File: 'Rock.blend'
# www.blender.org
mtllib Rock3.mtl
o Icosphere_Icosphere.002
v -0.285358 -1.124526 0.250077
v 0.743233 -0.742334 0.570023
v -0.268513 -0.558646 0.870929
v -1.158603 -0.547320 0.236185
v -0.540565 -0.547325 -0.614465
v 0.865715 -0.406828 -0.376587
v 0.516695 0.458333 1.208058
v -0.779715 0.631767 0.245564
v -0.723607 0.447220 -0.525725
v 0.255715 0.470548 -0.907977
v 1.173725 0.536146 -0.221416
v -0.121344 1.123368 -0.184279
v -0.475383 -0.949836 0.834922
v 0.397580 -0.995293 0.439566
v 0.282495 -0.820852 0.853310
v 1.206203 -0.650035 0.159940
v 0.342827 -0.930563 0.047081
v -0.900305 -0.949833 0.250077
v -0.774588 -0.655137 0.440002
v -0.265959 -0.785001 -0.240536
v -0.952366 -0.625841 -0.263812
v 0.231544 -0.404945 -0.601993
v 1.062148 -0.238080 0.235772
v 1.061356 -0.041692 -0.152208
v 0.128478 -0.342133 1.109484
v 0.699426 -0.085562 0.781283
v -0.912659 0.091210 0.082956
v -0.612800 0.082166 0.593709
v -0.851962 -0.100105 -0.572832
v -1.215235 -0.100105 -0.072828
v 0.677960 -0.135868 -0.851525
v -0.119058 -0.135868 -1.110492
v 0.969771 0.727435 0.480753
v -0.654330 0.747477 0.836951
v -0.812249 0.616946 -0.226057
v -0.475500 0.577015 -0.851518
v 0.772231 0.795633 -0.466081
v 0.060210 1.028304 0.526265
v 0.667099 0.899388 -0.184279
v -0.759206 0.899392 0.279149
v -0.425323 0.850654 -0.309011
v 0.101226 1.017592 -0.432502
vt 0.181819 0.000000
vt 0.227273 0.078731
vt 0.136365 0.078731
vt 0.272728 0.157461
vt 0.318182 0.078731
vt 0.363637 0.157461
vt 0.909091 0.000000
vt 0.954545 0.078731
vt 0.863636 0.078731
vt 0.727273 0.000000
vt 0.772727 0.078731
vt 0.681818 0.078731
vt 0.545455 0.000000
vt 0.590909 0.078731
vt 0.500000 0.078731
vt 0.318182 0.236191
vt 0.090910 0.157461
vt 0.181819 0.157461
vt 0.136365 0.236191
vt 0.818182 0.157461
vt 0.909091 0.157461
vt 0.863636 0.236191
vt 0.636364 0.157461
vt 0.727273 0.157461
vt 0.681818 0.236191
vt 0.454546 0.157461
vt 0.545455 0.157461
vt 0.500000 0.236191
vt 0.227273 0.236191
vt 0.045455 0.236191
vt 0.772727 0.236191
vt 0.590909 0.236191
vt 0.409092 0.236191
vt 0.181819 0.314921
vt 0.272728 0.314921
vt 0.227273 0.393651
vt 0.000000 0.314921
vt 0.090910 0.314921
vt 0.045455 0.393651
vt 0.727273 0.314921
vt 0.818182 0.314921
vt 0.772727 0.393651
vt 0.545455 0.314921
vt 0.636364 0.314921
vt 0.590909 0.393651
vt 0.363637 0.314921
vt 0.454546 0.314921
vt 0.409092 0.393651
vt 0.500000 0.393651
vt 0.454546 0.472382
vt 0.681818 0.393651
vt 0.636364 0.472382
vt 0.863636 0.393651
vt 0.818182 0.472382
vt 0.909091 0.314921
vt 0.136365 0.393651
vt 0.090910 0.472382
vt 0.318182 0.393651
vt 0.272728 0.472382
vt 0.954545 0.236191
vt 1.000000 0.157461
vt 0.409092 0.078731
vt 0.363637 0.000000
vn 0.0922 -0.9455 0.3124
vn 0.4667 -0.8149 0.3435
vn -0.2680 -0.9435 0.1947
vn -0.2263 -0.7967 -0.5603
vn 0.0708 -0.8215 -0.5657
vn 0.6505 0.0886 0.7543
vn -0.2181 -0.5141 0.8295
vn -0.3618 0.3470 0.8653
vn -0.5746 -0.3304 -0.7488
vn 0.1903 -0.8185 -0.5422
vn 0.8083 -0.1307 0.5740
vn -0.5420 0.0711 0.8374
vn -0.6063 0.3987 0.6881
vn -0.5694 -0.3263 -0.7545
vn 0.8716 -0.1890 -0.4524
vn 0.2960 0.8210 0.4882
vn -0.9790 0.0502 0.1977
vn -0.5184 0.6692 -0.5324
vn 0.0385 0.6617 -0.7488
vn 0.5765 0.8127 -0.0841
vn 0.2696 0.9491 -0.1627
vn 0.2951 0.9271 -0.2312
vn 0.1872 0.6740 -0.7146
vn -0.3654 0.6920 -0.6225
vn -0.3604 0.8458 -0.3933
vn -0.6996 0.6619 -0.2691
vn -0.5337 0.7623 -0.3661
vn -0.5373 0.7589 -0.3679
vn -0.9955 0.0679 0.0665
vn -0.2060 0.9616 0.1813
vn -0.2350 0.9257 0.2963
vn -0.0174 0.7613 0.6481
vn 0.2728 0.9603 0.0588
vn 0.3170 0.9432 0.0996
vn 0.5793 0.8134 -0.0533
vn 0.4197 -0.1880 -0.8880
vn 0.8644 0.1150 -0.4894
vn 0.5145 0.2829 -0.8095
vn -0.0247 0.3304 -0.9435
vn -0.5916 -0.0029 -0.8062
vn -0.8161 0.2368 -0.5272
vn -0.8170 0.3635 -0.4476
vn -0.6222 0.4816 0.6172
vn -0.9734 0.2213 0.0602
vn -0.9618 -0.1450 0.2323
vn -0.6538 -0.2955 0.6966
vn -0.2961 0.0261 0.9548
vn 0.8608 -0.1020 0.4985
vn 0.8225 -0.0647 0.5650
vn 0.9617 0.0227 0.2732
vn 0.3066 0.1256 -0.9435
vn 0.1801 -0.8127 -0.5542
vn 0.1605 -0.8224 -0.5458
vn -0.7866 0.2337 -0.5715
vn -0.7947 -0.1876 -0.5773
vn -0.8897 -0.3304 -0.3151
vn -0.8604 0.0593 0.5062
vn -0.8587 0.0830 0.5056
vn -0.6463 -0.0172 0.7629
vn 0.5825 -0.3715 0.7229
vn 0.5630 -0.2418 0.7903
vn 0.5379 -0.2254 0.8123
vn 0.9739 -0.2019 -0.1042
vn 0.9415 0.3015 0.1507
vn 0.8209 -0.0936 -0.5634
vn 0.2240 -0.7383 -0.6362
vn 0.1189 -0.7616 -0.6371
vn 0.1535 -0.7790 -0.6079
vn -0.1911 -0.8859 -0.4228
vn -0.1775 -0.8405 -0.5119
vn -0.8106 -0.5289 -0.2513
vn -0.5116 -0.3005 0.8050
vn -0.8086 -0.0337 0.5875
vn -0.6527 0.2804 0.7038
vn 0.3220 -0.7686 -0.5528
vn 0.3262 -0.9243 -0.1980
vn 0.2331 -0.9537 -0.1898
vn -0.0094 -0.0867 0.9962
vn 0.1426 -0.8972 0.4179
vn 0.4112 -0.7934 0.4489
usemtl None
s off
f 1/1/1 14/2/1 13/3/1
f 2/4/2 14/5/2 16/6/2
f 1/7/3 13/8/3 18/9/3
f 1/10/4 18/11/4 20/12/4
f 1/13/5 20/14/5 17/15/5
f 2/4/6 16/6/6 23/16/6
f 3/17/7 15/18/7 25/19/7
f 4/20/8 19/21/8 27/22/8
f 5/23/9 21/24/9 29/25/9
f 6/26/10 22/27/10 31/28/10
f 2/4/11 23/16/11 26/29/11
f 3/17/12 25/19/12 28/30/12
f 4/20/13 27/22/13 30/31/13
f 5/23/14 29/25/14 32/32/14
f 6/26/15 31/28/15 24/33/15
f 7/34/16 33/35/16 38/36/16
f 8/37/17 34/38/17 40/39/17
f 9/40/18 35/41/18 41/42/18
f 10/43/19 36/44/19 42/45/19
f 11/46/20 37/47/20 39/48/20
f 39/48/21 42/49/21 12/50/21
f 39/48/22 37/47/22 42/49/22
f 37/47/23 10/43/23 42/49/23
f 42/45/24 41/51/24 12/52/24
f 42/45/25 36/44/25 41/51/25
f 36/44/26 9/40/26 41/51/26
f 41/42/27 40/53/27 12/54/27
f 41/42/28 35/41/28 40/53/28
f 35/41/29 8/55/29 40/53/29
f 40/39/30 38/56/30 12/57/30
f 40/39/31 34/38/31 38/56/31
f 34/38/32 7/34/32 38/56/32
f 38/36/33 39/58/33 12/59/33
f 38/36/34 33/35/34 39/58/34
f 33/35/35 11/46/35 39/58/35
f 24/33/36 37/47/36 11/46/36
f 24/33/37 31/28/37 37/47/37
f 31/28/38 10/43/38 37/47/38
f 32/32/39 36/44/39 10/43/39
f 32/32/40 29/25/40 36/44/40
f 29/25/41 9/40/41 36/44/41
f 30/31/42 35/41/42 9/40/42
f 30/31/43 27/22/43 35/41/43
f 27/22/44 8/55/44 35/41/44
f 28/30/45 34/38/45 8/37/45
f 28/30/46 25/19/46 34/38/46
f 25/19/47 7/34/47 34/38/47
f 26/29/48 33/35/48 7/34/48
f 26/29/49 23/16/49 33/35/49
f 23/16/50 11/46/50 33/35/50
f 31/28/51 32/32/51 10/43/51
f 31/28/52 22/27/52 32/32/52
f 22/27/53 5/23/53 32/32/53
f 29/25/54 30/31/54 9/40/54
f 29/25/55 21/24/55 30/31/55
f 21/24/56 4/20/56 30/31/56
f 27/22/57 28/60/57 8/55/57
f 27/22/58 19/21/58 28/60/58
f 19/21/59 3/61/59 28/60/59
f 25/19/60 26/29/60 7/34/60
f 25/19/61 15/18/61 26/29/61
f 15/18/62 2/4/62 26/29/62
f 23/16/63 24/33/63 11/46/63
f 23/16/64 16/6/64 24/33/64
f 16/6/65 6/26/65 24/33/65
f 17/15/66 22/27/66 6/26/66
f 17/15/67 20/14/67 22/27/67
f 20/14/68 5/23/68 22/27/68
f 20/12/69 21/24/69 5/23/69
f 20/12/70 18/11/70 21/24/70
f 18/11/71 4/20/71 21/24/71
f 18/9/72 19/21/72 4/20/72
f 18/9/73 13/8/73 19/21/73
f 13/8/74 3/61/74 19/21/74
f 16/6/75 17/62/75 6/26/75
f 16/6/76 14/5/76 17/62/76
f 14/5/77 1/63/77 17/62/77
f 13/3/78 15/18/78 3/17/78
f 13/3/79 14/2/79 15/18/79
f 14/2/80 2/4/80 15/18/80
