# Blender v2.93.4 OBJ File: 'MagLev.blend'
# www.blender.org
mtllib MagLevCentre.mtl
o Cylinder.001
v -0.000000 0.423884 -1.201334
v -0.649490 0.423884 -1.010626
v -1.092772 0.423884 -0.499052
v -1.189106 0.423884 0.170968
v -0.907908 0.423884 0.786706
v -0.338455 0.423884 1.152671
v 0.338455 0.423884 1.152671
v 0.907908 0.423884 0.786706
v 1.189106 0.423884 0.170968
v 1.092772 0.423884 -0.499052
v 0.649490 0.423884 -1.010626
v 0.219130 -0.048187 -0.340973
v 0.000000 -0.048187 -0.405316
v 0.368688 -0.048187 -0.168374
v 0.401190 -0.048187 0.057683
v 0.306317 -0.048187 0.265426
v 0.114191 -0.048187 0.388898
v -0.114191 -0.048187 0.388898
v -0.306317 -0.048187 0.265426
v -0.401190 -0.048187 0.057683
v -0.368688 -0.048187 -0.168375
v -0.219131 -0.048187 -0.340973
vt 0.276236 0.290823
vt 0.250000 0.298527
vt 0.223764 0.290823
vt 0.205858 0.270159
vt 0.201967 0.243094
vt 0.213326 0.218222
vt 0.236328 0.203439
vt 0.263672 0.203439
vt 0.286674 0.218222
vt 0.298033 0.243094
vt 0.294142 0.270159
vt 0.371546 0.439129
vt 0.250000 0.474818
vt 0.454502 0.343393
vt 0.472529 0.218005
vt 0.419906 0.102776
vt 0.313339 0.034289
vt 0.186662 0.034289
vt 0.080094 0.102776
vt 0.027471 0.218005
vt 0.045499 0.343393
vt 0.128454 0.439129
vn -0.0000 1.0000 -0.0000
vn -0.1481 0.8506 0.5045
vn -0.3973 0.8506 0.3443
vn -0.5204 0.8506 0.0748
vn -0.4782 0.8506 -0.2184
vn -0.2842 0.8506 -0.4423
vn -0.0000 0.8506 -0.5258
vn 0.2842 0.8506 -0.4423
vn 0.4782 0.8506 -0.2184
vn 0.5204 0.8506 0.0748
vn 0.3973 0.8506 0.3443
vn 0.1481 0.8506 0.5045
usemtl None
s off
f 12/1/1 13/2/1 22/3/1 21/4/1 20/5/1 19/6/1 18/7/1 17/8/1 16/9/1 15/10/1 14/11/1
f 13/2/2 12/1/2 11/12/2 1/13/2
f 12/1/3 14/11/3 10/14/3 11/12/3
f 14/11/4 15/10/4 9/15/4 10/14/4
f 15/10/5 16/9/5 8/16/5 9/15/5
f 16/9/6 17/8/6 7/17/6 8/16/6
f 17/8/7 18/7/7 6/18/7 7/17/7
f 18/7/8 19/6/8 5/19/8 6/18/8
f 19/6/9 20/5/9 4/20/9 5/19/9
f 20/5/10 21/4/10 3/21/10 4/20/10
f 21/4/11 22/3/11 2/22/11 3/21/11
f 22/3/12 13/2/12 1/13/12 2/22/12
