# Blender v2.93.4 OBJ File: 'MagLev.blend'
# www.blender.org
mtllib MagLevOutside.mtl
o Cylinder
v -0.000000 -0.783247 -2.000000
v -0.759661 0.207723 -1.182055
v 1.081282 -0.783247 -1.682507
v -1.278134 0.207723 -0.583705
v 1.819264 -0.783247 -0.830830
v -1.390809 0.207723 0.199968
v 1.979643 -0.783247 0.284630
v -1.061912 0.207723 0.920152
v 1.511499 -0.783247 1.309721
v -0.395866 0.207723 1.348194
v 0.563465 -0.783247 1.918986
v 0.395866 0.207723 1.348194
v -0.563465 -0.783247 1.918986
v 1.061912 0.207723 0.920152
v -1.511499 -0.783247 1.309721
v 1.390809 0.207723 0.199968
v -1.979643 -0.783247 0.284630
v 1.278134 0.207723 -0.583704
v -1.819264 -0.783247 -0.830830
v -0.000000 0.207723 -1.405111
v -1.081282 -0.783247 -1.682507
v 0.759660 0.207723 -1.182055
v 0.810961 0.207723 -1.261880
v -0.000000 0.207723 -1.500000
v 1.364448 0.207723 -0.623123
v 1.484732 0.207723 0.213472
v 1.133624 0.207723 0.982291
v 0.422599 0.207723 1.439240
v -0.422599 0.207723 1.439240
v -1.133624 0.207723 0.982291
v -1.484732 0.207723 0.213473
v -1.364448 0.207723 -0.623123
v -0.810961 0.207723 -1.261880
v 0.759660 0.207723 -1.182055
v -0.000000 0.207723 -1.405111
v 1.278134 0.207723 -0.583704
v 1.390809 0.207723 0.199968
v 1.061912 0.207723 0.920152
v 0.395866 0.207723 1.348194
v -0.395866 0.207723 1.348194
v -1.061912 0.207723 0.920152
v -1.390809 0.207723 0.199968
v -1.278134 0.207723 -0.583705
v -0.759661 0.207723 -1.182055
v 0.759660 0.207723 -1.182055
v -0.000000 0.207723 -1.405111
v 1.278134 0.207723 -0.583704
v 1.390809 0.207723 0.199968
v 1.061912 0.207723 0.920152
v 0.395866 0.207723 1.348194
v -0.395866 0.207723 1.348194
v -1.061912 0.207723 0.920152
v -1.390809 0.207723 0.199968
v -1.278134 0.207723 -0.583705
v -0.759661 0.207723 -1.182055
v -0.000000 0.423884 -1.201334
v -0.649490 0.423884 -1.010626
v -1.092772 0.423884 -0.499052
v -1.189106 0.423884 0.170968
v -0.907908 0.423884 0.786706
v -0.338455 0.423884 1.152671
v 0.338455 0.423884 1.152671
v 0.907908 0.423884 0.786706
v 1.189106 0.423884 0.170968
v 1.092772 0.423884 -0.499052
v 0.649490 0.423884 -1.010626
vt 1.000000 0.500000
vt 1.000000 1.000000
vt 0.909091 1.000000
vt 0.909091 0.500000
vt 0.818182 1.000000
vt 0.818182 0.500000
vt 0.727273 1.000000
vt 0.727273 0.500000
vt 0.636364 1.000000
vt 0.636364 0.500000
vt 0.545454 1.000000
vt 0.545454 0.500000
vt 0.454545 1.000000
vt 0.454545 0.500000
vt 0.363636 1.000000
vt 0.363636 0.500000
vt 0.272727 1.000000
vt 0.272727 0.500000
vt 0.181818 1.000000
vt 0.181818 0.500000
vt 0.090909 1.000000
vt 0.090909 0.500000
vt -0.000000 1.000000
vt -0.000000 0.500000
vt 0.750000 0.490000
vt 0.879754 0.451901
vt 0.968312 0.349700
vt 0.987557 0.215844
vt 0.931380 0.092833
vt 0.817616 0.019722
vt 0.682384 0.019722
vt 0.568620 0.092833
vt 0.512443 0.215844
vt 0.531688 0.349700
vt 0.620246 0.451901
vt 0.250000 0.474818
vt 0.371546 0.439129
vt 0.379754 0.451901
vt 0.250000 0.490000
vt 0.454502 0.343393
vt 0.468312 0.349700
vt 0.472529 0.218005
vt 0.487557 0.215844
vt 0.419906 0.102776
vt 0.431380 0.092833
vt 0.313339 0.034289
vt 0.317616 0.019722
vt 0.186662 0.034289
vt 0.182384 0.019722
vt 0.080094 0.102776
vt 0.068620 0.092833
vt 0.027471 0.218005
vt 0.012443 0.215844
vt 0.045499 0.343393
vt 0.031688 0.349700
vt 0.128454 0.439129
vt 0.120246 0.451901
vt 0.045499 0.343393
vt 0.128454 0.439129
vt 0.454502 0.343393
vt 0.472529 0.218005
vt 0.313339 0.034289
vt 0.186662 0.034289
vt 0.027471 0.218005
vt 0.371546 0.439129
vt 0.419906 0.102776
vt 0.080094 0.102776
vt 0.250000 0.474818
vt 0.045499 0.343393
vt 0.128454 0.439129
vt 0.454502 0.343393
vt 0.472529 0.218005
vt 0.313339 0.034289
vt 0.186662 0.034289
vt 0.027471 0.218005
vt 0.371546 0.439129
vt 0.419906 0.102776
vt 0.080094 0.102776
vt 0.250000 0.474818
vt 0.472529 0.218005
vt 0.419906 0.102776
vt 0.128454 0.439129
vt 0.250000 0.474818
vt 0.371546 0.439129
vt 0.080094 0.102776
vt 0.027471 0.218005
vt 0.313339 0.034289
vt 0.454502 0.343393
vt 0.045499 0.343393
vt 0.186662 0.034289
vn 0.2536 0.4357 -0.8636
vn 0.6802 0.4357 -0.5894
vn 0.8909 0.4357 -0.1281
vn 0.8187 0.4357 0.3739
vn 0.4866 0.4357 0.7572
vn 0.0000 0.4357 0.9001
vn -0.4866 0.4357 0.7572
vn -0.8187 0.4357 0.3739
vn -0.8909 0.4357 -0.1281
vn -0.6802 0.4357 -0.5894
vn -0.2536 0.4357 -0.8636
vn 0.0000 -1.0000 0.0000
vn 0.0000 1.0000 0.0000
vn 0.0000 0.0000 1.0000
vn 0.6746 0.6708 0.3081
vn -0.2089 0.6708 -0.7116
vn 0.2089 0.6708 -0.7116
vn -0.6746 0.6708 0.3081
vn 0.4010 0.6708 0.6239
vn 0.5605 0.6708 -0.4857
vn -0.7341 0.6708 -0.1055
vn -0.0000 0.6708 0.7416
vn 0.7341 0.6708 -0.1055
vn -0.5605 0.6708 -0.4857
vn -0.4010 0.6708 0.6239
usemtl None
s off
f 1/1/1 24/2/1 23/3/1 3/4/1
f 3/4/2 23/3/2 25/5/2 5/6/2
f 5/6/3 25/5/3 26/7/3 7/8/3
f 7/8/4 26/7/4 27/9/4 9/10/4
f 9/10/5 27/9/5 28/11/5 11/12/5
f 11/12/6 28/11/6 29/13/6 13/14/6
f 13/14/7 29/13/7 30/15/7 15/16/7
f 15/16/8 30/15/8 31/17/8 17/18/8
f 17/18/9 31/17/9 32/19/9 19/20/9
f 19/20/10 32/19/10 33/21/10 21/22/10
f 21/22/11 33/21/11 24/23/11 1/24/11
f 1/25/12 3/26/12 5/27/12 7/28/12 9/29/12 11/30/12 13/31/12 15/32/12 17/33/12 19/34/12 21/35/12
f 35/36/13 34/37/13 23/38/13 24/39/13
f 34/37/13 36/40/13 25/41/13 23/38/13
f 36/40/13 37/42/13 26/43/13 25/41/13
f 37/42/13 38/44/13 27/45/13 26/43/13
f 38/44/13 39/46/13 28/47/13 27/45/13
f 39/46/13 40/48/13 29/49/13 28/47/13
f 40/48/13 41/50/13 30/51/13 29/49/13
f 41/50/13 42/52/13 31/53/13 30/51/13
f 42/52/13 43/54/13 32/55/13 31/53/13
f 43/54/13 44/56/13 33/57/13 32/55/13
f 44/56/13 35/36/13 24/39/13 33/57/13
f 44/56/14 43/54/14 54/58/14 55/59/14
f 37/42/14 36/40/14 47/60/14 48/61/14
f 40/48/14 39/46/14 50/62/14 51/63/14
f 43/54/14 42/52/14 53/64/14 54/58/14
f 36/40/14 34/37/14 45/65/14 47/60/14
f 39/46/14 38/44/14 49/66/14 50/62/14
f 42/52/14 41/50/14 52/67/14 53/64/14
f 34/37/14 35/36/14 46/68/14 45/65/14
f 35/36/14 44/56/14 55/59/14 46/68/14
f 38/44/14 37/42/14 48/61/14 49/66/14
f 41/50/14 40/48/14 51/63/14 52/67/14
f 55/59/14 54/58/14 4/69/14 2/70/14
f 48/61/14 47/60/14 18/71/14 16/72/14
f 51/63/14 50/62/14 12/73/14 10/74/14
f 54/58/14 53/64/14 6/75/14 4/69/14
f 47/60/14 45/65/14 22/76/14 18/71/14
f 50/62/14 49/66/14 14/77/14 12/73/14
f 53/64/14 52/67/14 8/78/14 6/75/14
f 45/65/14 46/68/14 20/79/14 22/76/14
f 46/68/14 55/59/14 2/70/14 20/79/14
f 49/66/14 48/61/14 16/72/14 14/77/14
f 52/67/14 51/63/14 10/74/14 8/78/14
f 14/77/15 16/72/15 64/80/15 63/81/15
f 20/79/16 2/70/16 57/82/16 56/83/16
f 22/76/17 20/79/17 56/83/17 66/84/17
f 6/75/18 8/78/18 60/85/18 59/86/18
f 12/73/19 14/77/19 63/81/19 62/87/19
f 18/71/20 22/76/20 66/84/20 65/88/20
f 4/69/21 6/75/21 59/86/21 58/89/21
f 10/74/22 12/73/22 62/87/22 61/90/22
f 16/72/23 18/71/23 65/88/23 64/80/23
f 2/70/24 4/69/24 58/89/24 57/82/24
f 8/78/25 10/74/25 61/90/25 60/85/25
