# Blender v2.93.4 OBJ File: 'SpaceStation.blend'
# www.blender.org
mtllib SpaceStationWindowTop.mtl
o Torus.001_Torus.003
v 1.175976 0.112900 -0.000000
v 1.165915 0.112900 -0.153496
v 1.135906 0.112900 -0.304365
v 1.086460 0.112900 -0.450026
v 1.018425 0.112900 -0.587988
v 0.932965 0.112900 -0.715889
v 0.831540 0.112900 -0.831541
v 0.715889 0.112900 -0.932964
v 0.587988 0.112900 -1.018425
v 0.450027 0.112900 -1.086460
v 0.304365 0.112900 -1.135906
v 0.153495 0.112900 -1.165915
v 0.000000 0.112900 -1.175976
v -0.153496 0.112900 -1.165915
v -0.304365 0.112900 -1.135906
v -0.450027 0.112900 -1.086460
v -0.587988 0.112900 -1.018425
v -0.715889 0.112900 -0.932964
v -0.831541 0.112900 -0.831540
v -0.932964 0.112900 -0.715889
v -1.018425 0.112900 -0.587988
v -1.086460 0.112900 -0.450027
v -1.135906 0.112900 -0.304365
v -1.165915 0.112900 -0.153496
v -1.175976 0.112900 -0.000000
v -1.165915 0.112900 0.153496
v -1.135906 0.112900 0.304365
v -1.086460 0.112900 0.450026
v -1.018425 0.112900 0.587988
v -0.932964 0.112900 0.715889
v -0.831541 0.112900 0.831540
v -0.715889 0.112900 0.932964
v -0.587988 0.112900 1.018425
v -0.450027 0.112900 1.086460
v -0.304365 0.112900 1.135905
v -0.153496 0.112900 1.165915
v 0.000000 0.112900 1.175976
v 0.153495 0.112900 1.165915
v 0.304364 0.112900 1.135906
v 0.450027 0.112900 1.086460
v 0.587988 0.112900 1.018425
v 0.715889 0.112900 0.932965
v 0.831540 0.112900 0.831541
v 0.932965 0.112900 0.715889
v 1.018425 0.112900 0.587988
v 1.086460 0.112900 0.450027
v 1.135906 0.112900 0.304365
v 1.165915 0.112900 0.153496
v 1.018425 0.133128 0.587988
v 1.086460 0.133128 0.450027
v 1.175976 0.133128 -0.000000
v 1.165915 0.133128 0.153496
v 1.165915 0.133128 -0.153496
v 1.018425 0.133128 -0.587988
v 0.932965 0.133128 -0.715889
v 0.587988 0.133128 -1.018425
v 0.450027 0.133128 -1.086460
v 0.000000 0.133128 -1.175976
v -0.153496 0.133128 -1.165915
v -0.587988 0.133128 -1.018425
v -0.715889 0.133128 -0.932964
v -1.018425 0.133128 -0.587988
v -1.086460 0.133128 -0.450027
v -1.175976 0.133128 -0.000000
v -1.165915 0.133128 0.153496
v -1.018425 0.133128 0.587988
v -0.932964 0.133128 0.715889
v -0.587988 0.133128 1.018425
v -0.450027 0.133128 1.086460
v 0.000000 0.133128 1.175976
v 0.153495 0.133128 1.165915
v 0.587988 0.133128 1.018425
v 0.715889 0.133128 0.932965
v 0.932965 0.133128 0.715889
v 1.086460 0.133128 -0.450026
v 0.715889 0.133128 -0.932964
v 0.153495 0.133128 -1.165915
v -0.450027 0.133128 -1.086460
v -0.932964 0.133128 -0.715889
v -1.165915 0.133128 -0.153496
v -1.086460 0.133128 0.450026
v -0.715889 0.133128 0.932964
v -0.153496 0.133128 1.165915
v 0.450027 0.133128 1.086460
v 0.831540 0.133128 0.831541
v 1.135906 0.133128 0.304365
v 1.135906 0.133128 -0.304365
v 0.831540 0.133128 -0.831541
v 0.304365 0.133128 -1.135906
v -0.304365 0.133128 -1.135906
v -0.831541 0.133128 -0.831540
v -1.135906 0.133128 -0.304365
v -1.135906 0.133128 0.304365
v -0.831541 0.133128 0.831540
v -0.304365 0.133128 1.135905
v 0.304364 0.133128 1.135906
vt 0.416667 0.666667
vt 0.437500 0.666667
vt 0.458333 0.666667
vt 0.479167 0.666667
vt 0.500000 0.666667
vt 0.520833 0.666667
vt 0.541667 0.666667
vt 0.562500 0.666667
vt 0.583333 0.666667
vt 0.604167 0.666667
vt 0.625000 0.666667
vt 0.645833 0.666667
vt 0.666667 0.666667
vt 0.687500 0.666667
vt 0.708333 0.666667
vt 0.729167 0.666667
vt 0.750000 0.666667
vt 0.770833 0.666667
vt 0.791667 0.666667
vt 0.812500 0.666667
vt 0.833333 0.666667
vt 0.854167 0.666667
vt 0.875000 0.666667
vt 0.895833 0.666667
vt 0.916667 0.666667
vt 0.937500 0.666667
vt 0.958333 0.666667
vt 0.979167 0.666667
vt 0.000000 0.666667
vt 0.020833 0.666667
vt 0.041667 0.666667
vt 0.062500 0.666667
vt 0.083333 0.666667
vt 0.104167 0.666667
vt 0.125000 0.666667
vt 0.145833 0.666667
vt 0.166667 0.666667
vt 0.187500 0.666667
vt 0.208333 0.666667
vt 0.229167 0.666667
vt 0.250000 0.666667
vt 0.270833 0.666667
vt 0.291667 0.666667
vt 0.312500 0.666667
vt 0.333333 0.666667
vt 0.354167 0.666667
vt 0.375000 0.666667
vt 0.395833 0.666667
vt 0.416667 0.666667
vt 0.395833 0.666667
vt 0.375000 0.666667
vt 0.354167 0.666667
vt 0.333333 0.666667
vt 0.312500 0.666667
vt 0.291667 0.666667
vt 0.270833 0.666667
vt 0.250000 0.666667
vt 0.229167 0.666667
vt 0.208333 0.666667
vt 0.187500 0.666667
vt 0.166667 0.666667
vt 0.145833 0.666667
vt 0.125000 0.666667
vt 0.104167 0.666667
vt 0.083333 0.666667
vt 0.062500 0.666667
vt 0.041667 0.666667
vt 0.020833 0.666667
vt 0.000000 0.666667
vt 0.979167 0.666667
vt 0.958333 0.666667
vt 0.937500 0.666667
vt 0.916667 0.666667
vt 0.895833 0.666667
vt 0.875000 0.666667
vt 0.854167 0.666667
vt 0.833333 0.666667
vt 0.812500 0.666667
vt 0.791667 0.666667
vt 0.770833 0.666667
vt 0.750000 0.666667
vt 0.729167 0.666667
vt 0.708333 0.666667
vt 0.687500 0.666667
vt 0.666667 0.666667
vt 0.645833 0.666667
vt 0.625000 0.666667
vt 0.604167 0.666667
vt 0.583333 0.666667
vt 0.562500 0.666667
vt 0.541667 0.666667
vt 0.520833 0.666667
vt 0.500000 0.666667
vt 0.479167 0.666667
vt 0.458333 0.666667
vt 0.437500 0.666667
vn 0.0000 1.0000 0.0000
vn 0.0000 -1.0000 -0.0000
vn -0.8969 0.0000 -0.4423
vn -0.6593 0.0000 0.7518
vn -0.8969 0.0000 0.4423
vn 0.6593 0.0000 0.7518
vn -0.9979 0.0000 -0.0654
vn -0.1951 0.0000 0.9808
vn -0.5556 0.0000 0.8315
vn 0.9469 0.0000 0.3214
vn -0.9979 0.0000 0.0654
vn 0.3214 0.0000 0.9469
vn -0.0654 0.0000 0.9979
vn 0.9808 0.0000 -0.1951
vn -0.8315 0.0000 0.5556
vn 0.7518 0.0000 0.6593
vn 0.4423 0.0000 0.8969
vn 0.7518 0.0000 -0.6593
vn -0.4423 0.0000 0.8969
vn 0.9808 0.0000 0.1951
vn 0.8315 0.0000 0.5556
vn 0.3214 0.0000 -0.9469
vn 0.0654 0.0000 0.9979
vn 0.9469 0.0000 -0.3214
vn 0.9979 0.0000 0.0654
vn -0.1951 0.0000 -0.9808
vn 0.5556 0.0000 0.8315
vn 0.6593 0.0000 -0.7518
vn 0.8969 0.0000 -0.4423
vn -0.6593 0.0000 -0.7518
vn 0.8969 0.0000 0.4423
vn 0.1951 0.0000 -0.9808
vn 0.5556 0.0000 -0.8315
vn 0.9979 0.0000 -0.0654
vn -0.3214 0.0000 -0.9469
vn 0.0654 0.0000 -0.9979
vn 0.8315 0.0000 -0.5556
vn -0.9469 0.0000 -0.3214
vn -0.4423 0.0000 -0.8969
vn 0.4423 0.0000 -0.8969
vn -0.9808 0.0000 0.1951
vn -0.7518 0.0000 -0.6593
vn -0.0654 0.0000 -0.9979
vn -0.7518 0.0000 0.6593
vn -0.9808 0.0000 -0.1951
vn -0.5556 0.0000 -0.8315
vn -0.3214 0.0000 0.9469
vn -0.9469 0.0000 0.3214
vn -0.8315 0.0000 -0.5556
vn 0.1951 0.0000 0.9808
usemtl None
s off
f 45/1/1 46/2/1 47/3/1 48/4/1 1/5/1 2/6/1 3/7/1 4/8/1 5/9/1 6/10/1 7/11/1 8/12/1 9/13/1 10/14/1 11/15/1 12/16/1 13/17/1 14/18/1 15/19/1 16/20/1 17/21/1 18/22/1 19/23/1 20/24/1 21/25/1 22/26/1 23/27/1 24/28/1 25/29/1 26/30/1 27/31/1 28/32/1 29/33/1 30/34/1 31/35/1 32/36/1 33/37/1 34/38/1 35/39/1 36/40/1 37/41/1 38/42/1 39/43/1 40/44/1 41/45/1 42/46/1 43/47/1 44/48/1
f 49/49/2 74/50/2 85/51/2 73/52/2 72/53/2 84/54/2 96/55/2 71/56/2 70/57/2 83/58/2 95/59/2 69/60/2 68/61/2 82/62/2 94/63/2 67/64/2 66/65/2 81/66/2 93/67/2 65/68/2 64/69/2 80/70/2 92/71/2 63/72/2 62/73/2 79/74/2 91/75/2 61/76/2 60/77/2 78/78/2 90/79/2 59/80/2 58/81/2 77/82/2 89/83/2 57/84/2 56/85/2 76/86/2 88/87/2 55/88/2 54/89/2 75/90/2 87/91/2 53/92/2 51/93/2 52/94/2 86/95/2 50/96/2
f 46/2/3 45/1/3 49/49/3 50/96/3
f 8/12/4 7/11/4 88/87/4 76/86/4
f 5/9/5 4/8/5 75/90/5 54/89/5
f 19/23/6 18/22/6 61/76/6 91/75/6
f 1/5/7 48/4/7 52/94/7 51/93/7
f 12/16/8 11/15/8 89/83/8 77/82/8
f 9/13/9 8/12/9 76/86/9 56/85/9
f 23/27/10 22/26/10 63/72/10 92/71/10
f 2/6/11 1/5/11 51/93/11 53/92/11
f 16/20/12 15/19/12 90/79/12 78/78/12
f 13/17/13 12/16/13 77/82/13 58/81/13
f 27/31/14 26/30/14 65/68/14 93/67/14
f 6/10/15 5/9/15 54/89/15 55/88/15
f 20/24/16 19/23/16 91/75/16 79/74/16
f 17/21/17 16/20/17 78/78/17 60/77/17
f 31/35/18 30/34/18 67/64/18 94/63/18
f 10/14/19 9/13/19 56/85/19 57/84/19
f 24/28/20 23/27/20 92/71/20 80/70/20
f 21/25/21 20/24/21 79/74/21 62/73/21
f 35/39/22 34/38/22 69/60/22 95/59/22
f 14/18/23 13/17/23 58/81/23 59/80/23
f 28/32/24 27/31/24 93/67/24 81/66/24
f 25/29/25 24/28/25 80/70/25 64/69/25
f 39/43/26 38/42/26 71/56/26 96/55/26
f 18/22/27 17/21/27 60/77/27 61/76/27
f 32/36/28 31/35/28 94/63/28 82/62/28
f 29/33/29 28/32/29 81/66/29 66/65/29
f 43/47/30 42/46/30 73/52/30 85/51/30
f 22/26/31 21/25/31 62/73/31 63/72/31
f 36/40/32 35/39/32 95/59/32 83/58/32
f 33/37/33 32/36/33 82/62/33 68/61/33
f 26/30/34 25/29/34 64/69/34 65/68/34
f 40/44/35 39/43/35 96/55/35 84/54/35
f 37/41/36 36/40/36 83/58/36 70/57/36
f 30/34/37 29/33/37 66/65/37 67/64/37
f 47/3/38 46/2/38 50/96/38 86/95/38
f 41/45/39 40/44/39 84/54/39 72/53/39
f 34/38/40 33/37/40 68/61/40 69/60/40
f 3/7/41 2/6/41 53/92/41 87/91/41
f 44/48/42 43/47/42 85/51/42 74/50/42
f 38/42/43 37/41/43 70/57/43 71/56/43
f 7/11/44 6/10/44 55/88/44 88/87/44
f 48/4/45 47/3/45 86/95/45 52/94/45
f 42/46/46 41/45/46 72/53/46 73/52/46
f 11/15/47 10/14/47 57/84/47 89/83/47
f 4/8/48 3/7/48 87/91/48 75/90/48
f 45/1/49 44/48/49 74/50/49 49/49/49
f 15/19/50 14/18/50 59/80/50 90/79/50
